# xmcd
#
# Track frame offsets:
#	150
#	16326
#	32747
#	57831
#	72999
#	84191
#	102958
#	123005
#
# Disc length: 1890 seconds
#
# Revision: 0
# Processed by: cddbd v1.4PL0 Copyright (c) Steve Scherf et al.
# Submitted via: dBpowerAMP V4.0
#
DISCID=59076008
DTITLE=Liz Melendez - Mercy
DYEAR=2001
DGENRE=Blues
TTITLE0=Keep My Head On
TTITLE1=Similar Circumstance
TTITLE2=Mercy
TTITLE3=Don't Wanna Leave You Alone
TTITLE4=I Never Do
TTITLE5=Cisco's Revenge
TTITLE6=Milagro
TTITLE7=Drink Your Wine
EXTD=
EXTT0=
EXTT1=
EXTT2=
EXTT3=
EXTT4=
EXTT5=
EXTT6=
EXTT7=
PLAYORDER=
